{"asset":{"version":"2.0","generator":"Blockbench 4.10.4 glTF exporter"},"scenes":[{"nodes":[3],"name":"blockbench_export"}],"scene":0,"nodes":[{"translation":[0,0.5343750000000005,-0.35312499999999997],"name":"cylinder","mesh":0},{"translation":[0,-0.4375,-0.13124999999999998],"name":"cuboid","mesh":1},{"name":"bone","children":[1]},{"children":[0,2]}],"bufferViews":[{"buffer":0,"byteOffset":0,"byteLength":1200,"target":34962,"byteStride":12},{"buffer":0,"byteOffset":1200,"byteLength":1200,"target":34962,"byteStride":12},{"buffer":0,"byteOffset":2400,"byteLength":800,"target":34962,"byteStride":8},{"buffer":0,"byteOffset":3200,"byteLength":240,"target":34963},{"buffer":0,"byteOffset":3440,"byteLength":1248,"target":34962,"byteStride":12},{"buffer":0,"byteOffset":4688,"byteLength":1248,"target":34962,"byteStride":12},{"buffer":0,"byteOffset":5936,"byteLength":832,"target":34962,"byteStride":8},{"buffer":0,"byteOffset":6768,"byteLength":312,"target":34963}],"buffers":[{"byteLength":7080,"uri":"data:application/octet-stream;base64,"}],"accessors":[{"bufferView":0,"componentType":5126,"count":100,"max":[0.03198111057281494,0.5406249761581421,0.03125],"min":[-0.03198111057281494,-0.04062499850988388,-0.03125],"type":"VEC3"},{"bufferView":1,"componentType":5126,"count":100,"max":[0.9534574151039124,1,1],"min":[-0.9534574151039124,-1,-1],"type":"VEC3"},{"bufferView":2,"componentType":5126,"count":100,"max":[0.20700304210186005,0.25009864568710327],"min":[0.1842963993549347,0.0939902663230896],"type":"VEC2"},{"bufferView":3,"componentType":5123,"count":120,"max":[99],"min":[0],"type":"SCALAR"},{"bufferView":4,"componentType":5126,"count":104,"max":[0.11562500149011612,0.96875,0.359375],"min":[-0.11562500149011612,-0.3843750059604645,-0.359375],"type":"VEC3"},{"bufferView":5,"componentType":5126,"count":104,"max":[1,1,1],"min":[-1,-1,-1],"type":"VEC3"},{"bufferView":6,"componentType":5126,"count":104,"max":[0.9058061242103577,0.9033650159835815],"min":[0.13496769964694977,0.32046985626220703],"type":"VEC2"},{"bufferView":7,"componentType":5123,"count":156,"max":[103],"min":[0],"type":"SCALAR"}],"materials":[{"pbrMetallicRoughness":{"metallicFactor":0,"roughnessFactor":1,"baseColorTexture":{"index":0}},"alphaMode":"MASK","alphaCutoff":0.05,"doubleSided":true}],"textures":[{"sampler":0,"source":0,"name":"radio1.png"}],"samplers":[{"magFilter":9728,"minFilter":9728,"wrapS":33071,"wrapT":33071}],"images":[{"mimeType":"image/png","uri":"data:image/png;base64,"}],"meshes":[{"primitives":[{"mode":4,"attributes":{"POSITION":0,"NORMAL":1,"TEXCOORD_0":2},"indices":3,"material":0}]},{"primitives":[{"mode":4,"attributes":{"POSITION":4,"NORMAL":5,"TEXCOORD_0":6},"indices":7,"material":0}]}]}